{
  "accessors": [
    {
      "bufferView": 2,
      "componentType": 5126,
      "count": 65532,
      "max": [
        3.7102603912353516,
        3.867304801940918,
        11.650287628173828
      ],
      "min": [
        -4.2797489166259766,
        -4.927649974822998,
        7.6848387718200684
      ],
      "type": "VEC3"
    },
    {
      "bufferView": 2,
      "byteOffset": 786384,
      "componentType": 5126,
      "count": 65532,
      "max": [
        0.99999749660491943,
        0.99999725818634033,
        0.9999997615814209
      ],
      "min": [
        -0.99999558925628662,
        -0.99999010562896729,
        -1
      ],
      "type": "VEC3"
    },
    {
      "bufferView": 1,
      "componentType": 5126,
      "count": 65532,
      "max": [
        1,
        1
      ],
      "min": [
        0,
        0
      ],
      "type": "VEC2"
    },
    {
      "bufferView": 1,
      "byteOffset": 524256,
      "componentType": 5126,
      "count": 65532,
      "max": [
        1,
        1
      ],
      "min": [
        0,
        0
      ],
      "type": "VEC2"
    },
    {
      "bufferView": 1,
      "byteOffset": 1048512,
      "componentType": 5126,
      "count": 65532,
      "max": [
        1,
        1
      ],
      "min": [
        0,
        0
      ],
      "type": "VEC2"
    },
    {
      "bufferView": 0,
      "componentType": 5125,
      "count": 323007,
      "max": [
        65531
      ],
      "min": [
        0
      ],
      "type": "SCALAR"
    },
    {
      "bufferView": 2,
      "byteOffset": 1572768,
      "componentType": 5126,
      "count": 65532,
      "max": [
        3.5675177574157715,
        4.377098560333252,
        10.435420036315918
      ],
      "min": [
        -4.2976779937744141,
        -4.8359513282775879,
        5.4085693359375
      ],
      "type": "VEC3"
    },
    {
      "bufferView": 2,
      "byteOffset": 2359152,
      "componentType": 5126,
      "count": 65532,
      "max": [
        0.99999785423278809,
        0.99999594688415527,
        1
      ],
      "min": [
        -0.9999995231628418,
        -0.99998700618743896,
        -0.99999940395355225
      ],
      "type": "VEC3"
    },
    {
      "bufferView": 1,
      "byteOffset": 1572768,
      "componentType": 5126,
      "count": 65532,
      "max": [
        1,
        1
      ],
      "min": [
        0,
        0
      ],
      "type": "VEC2"
    },
    {
      "bufferView": 1,
      "byteOffset": 2097024,
      "componentType": 5126,
      "count": 65532,
      "max": [
        1,
        1
      ],
      "min": [
        0,
        0
      ],
      "type": "VEC2"
    },
    {
      "bufferView": 1,
      "byteOffset": 2621280,
      "componentType": 5126,
      "count": 65532,
      "max": [
        1,
        1
      ],
      "min": [
        0,
        0
      ],
      "type": "VEC2"
    },
    {
      "bufferView": 0,
      "byteOffset": 1292028,
      "componentType": 5125,
      "count": 322962,
      "max": [
        65531
      ],
      "min": [
        0
      ],
      "type": "SCALAR"
    },
    {
      "bufferView": 2,
      "byteOffset": 3145536,
      "componentType": 5126,
      "count": 65532,
      "max": [
        3.789170503616333,
        4.3629093170166016,
        10.893468856811523
      ],
      "min": [
        -4.4630208015441895,
        -4.804999828338623,
        4.3443293571472168
      ],
      "type": "VEC3"
    },
    {
      "bufferView": 2,
      "byteOffset": 3931920,
      "componentType": 5126,
      "count": 65532,
      "max": [
        0.99999940395355225,
        0.99997282028198242,
        1
      ],
      "min": [
        -0.9999840259552002,
        -0.99998068809509277,
        -1
      ],
      "type": "VEC3"
    },
    {
      "bufferView": 1,
      "byteOffset": 3145536,
      "componentType": 5126,
      "count": 65532,
      "max": [
        1,
        1
      ],
      "min": [
        0,
        0
      ],
      "type": "VEC2"
    },
    {
      "bufferView": 1,
      "byteOffset": 3669792,
      "componentType": 5126,
      "count": 65532,
      "max": [
        1,
        1
      ],
      "min": [
        0,
        0
      ],
      "type": "VEC2"
    },
    {
      "bufferView": 1,
      "byteOffset": 4194048,
      "componentType": 5126,
      "count": 65532,
      "max": [
        1,
        1
      ],
      "min": [
        0,
        0
      ],
      "type": "VEC2"
    },
    {
      "bufferView": 0,
      "byteOffset": 2583876,
      "componentType": 5125,
      "count": 316758,
      "max": [
        65531
      ],
      "min": [
        0
      ],
      "type": "SCALAR"
    },
    {
      "bufferView": 2,
      "byteOffset": 4718304,
      "componentType": 5126,
      "count": 65532,
      "max": [
        4.0360503196716309,
        4.348076343536377,
        11.274992942810059
      ],
      "min": [
        -4.4461679458618164,
        -4.5822148323059082,
        2.1357564926147461
      ],
      "type": "VEC3"
    },
    {
      "bufferView": 2,
      "byteOffset": 5504688,
      "componentType": 5126,
      "count": 65532,
      "max": [
        0.99999809265136719,
        0.99999439716339111,
        0.99999868869781494
      ],
      "min": [
        -0.99999773502349854,
        -0.99999940395355225,
        -0.99999856948852539
      ],
      "type": "VEC3"
    },
    {
      "bufferView": 1,
      "byteOffset": 4718304,
      "componentType": 5126,
      "count": 65532,
      "max": [
        1,
        1
      ],
      "min": [
        0,
        0
      ],
      "type": "VEC2"
    },
    {
      "bufferView": 1,
      "byteOffset": 5242560,
      "componentType": 5126,
      "count": 65532,
      "max": [
        1,
        1
      ],
      "min": [
        0,
        0
      ],
      "type": "VEC2"
    },
    {
      "bufferView": 1,
      "byteOffset": 5766816,
      "componentType": 5126,
      "count": 65532,
      "max": [
        1,
        1
      ],
      "min": [
        0,
        0
      ],
      "type": "VEC2"
    },
    {
      "bufferView": 0,
      "byteOffset": 3850908,
      "componentType": 5125,
      "count": 314097,
      "max": [
        65531
      ],
      "min": [
        0
      ],
      "type": "SCALAR"
    },
    {
      "bufferView": 2,
      "byteOffset": 6291072,
      "componentType": 5126,
      "count": 65532,
      "max": [
        3.7084164619445801,
        4.2039394378662109,
        11.267775535583496
      ],
      "min": [
        -4.1510882377624512,
        -4.9633421897888184,
        0
      ],
      "type": "VEC3"
    },
    {
      "bufferView": 2,
      "byteOffset": 7077456,
      "componentType": 5126,
      "count": 65532,
      "max": [
        0.99999535083770752,
        0.99999797344207764,
        0.99999988079071045
      ],
      "min": [
        -0.99999701976776123,
        -0.99999868869781494,
        -0.9999997615814209
      ],
      "type": "VEC3"
    },
    {
      "bufferView": 1,
      "byteOffset": 6291072,
      "componentType": 5126,
      "count": 65532,
      "max": [
        1,
        1
      ],
      "min": [
        0,
        0
      ],
      "type": "VEC2"
    },
    {
      "bufferView": 1,
      "byteOffset": 6815328,
      "componentType": 5126,
      "count": 65532,
      "max": [
        1,
        1
      ],
      "min": [
        0,
        0
      ],
      "type": "VEC2"
    },
    {
      "bufferView": 1,
      "byteOffset": 7339584,
      "componentType": 5126,
      "count": 65532,
      "max": [
        1,
        1
      ],
      "min": [
        0,
        0
      ],
      "type": "VEC2"
    },
    {
      "bufferView": 0,
      "byteOffset": 5107296,
      "componentType": 5125,
      "count": 317175,
      "max": [
        65531
      ],
      "min": [
        0
      ],
      "type": "SCALAR"
    },
    {
      "bufferView": 2,
      "byteOffset": 7863840,
      "componentType": 5126,
      "count": 65532,
      "max": [
        3.6280324459075928,
        3.8894712924957275,
        11.705859184265137
      ],
      "min": [
        -4.5851926803588867,
        -5.0345020294189453,
        1.7292213439941406
      ],
      "type": "VEC3"
    },
    {
      "bufferView": 2,
      "byteOffset": 8650224,
      "componentType": 5126,
      "count": 65532,
      "max": [
        0.99999105930328369,
        0.99999427795410156,
        0.99999916553497314
      ],
      "min": [
        -0.99998342990875244,
        -0.99999332427978516,
        -0.9999995231628418
      ],
      "type": "VEC3"
    },
    {
      "bufferView": 1,
      "byteOffset": 7863840,
      "componentType": 5126,
      "count": 65532,
      "max": [
        1,
        1
      ],
      "min": [
        0,
        0
      ],
      "type": "VEC2"
    },
    {
      "bufferView": 1,
      "byteOffset": 8388096,
      "componentType": 5126,
      "count": 65532,
      "max": [
        1,
        1
      ],
      "min": [
        0,
        0
      ],
      "type": "VEC2"
    },
    {
      "bufferView": 1,
      "byteOffset": 8912352,
      "componentType": 5126,
      "count": 65532,
      "max": [
        1,
        1
      ],
      "min": [
        0,
        0
      ],
      "type": "VEC2"
    },
    {
      "bufferView": 0,
      "byteOffset": 6375996,
      "componentType": 5125,
      "count": 315099,
      "max": [
        65531
      ],
      "min": [
        0
      ],
      "type": "SCALAR"
    },
    {
      "bufferView": 2,
      "byteOffset": 9436608,
      "componentType": 5126,
      "count": 65532,
      "max": [
        3.935267448425293,
        4.1720590591430664,
        7.1604223251342773
      ],
      "min": [
        -4.1903300285339355,
        -4.4696230888366699,
        2.2280604839324951
      ],
      "type": "VEC3"
    },
    {
      "bufferView": 2,
      "byteOffset": 10222992,
      "componentType": 5126,
      "count": 65532,
      "max": [
        0.99999701976776123,
        1,
        1
      ],
      "min": [
        -0.99999499320983887,
        -0.99998617172241211,
        -0.99999988079071045
      ],
      "type": "VEC3"
    },
    {
      "bufferView": 1,
      "byteOffset": 9436608,
      "componentType": 5126,
      "count": 65532,
      "max": [
        1,
        1
      ],
      "min": [
        0,
        0
      ],
      "type": "VEC2"
    },
    {
      "bufferView": 1,
      "byteOffset": 9960864,
      "componentType": 5126,
      "count": 65532,
      "max": [
        1,
        1
      ],
      "min": [
        0,
        0
      ],
      "type": "VEC2"
    },
    {
      "bufferView": 1,
      "byteOffset": 10485120,
      "componentType": 5126,
      "count": 65532,
      "max": [
        1,
        1
      ],
      "min": [
        0,
        0
      ],
      "type": "VEC2"
    },
    {
      "bufferView": 0,
      "byteOffset": 7636392,
      "componentType": 5125,
      "count": 323154,
      "max": [
        65531
      ],
      "min": [
        0
      ],
      "type": "SCALAR"
    },
    {
      "bufferView": 2,
      "byteOffset": 11009376,
      "componentType": 5126,
      "count": 22904,
      "max": [
        4.0407772064208984,
        4.118110179901123,
        7.4491066932678223
      ],
      "min": [
        -4.2660226821899414,
        -4.1553826332092285,
        3.4294071197509766
      ],
      "type": "VEC3"
    },
    {
      "bufferView": 2,
      "byteOffset": 11284224,
      "componentType": 5126,
      "count": 22904,
      "max": [
        0.99999451637268066,
        0.9999316930770874,
        0.99999904632568359
      ],
      "min": [
        -0.99999368190765381,
        -0.99999475479125977,
        -0.99999809265136719
      ],
      "type": "VEC3"
    },
    {
      "bufferView": 1,
      "byteOffset": 11009376,
      "componentType": 5126,
      "count": 22904,
      "max": [
        1,
        1
      ],
      "min": [
        0,
        0
      ],
      "type": "VEC2"
    },
    {
      "bufferView": 1,
      "byteOffset": 11192608,
      "componentType": 5126,
      "count": 22904,
      "max": [
        1,
        1
      ],
      "min": [
        0,
        0
      ],
      "type": "VEC2"
    },
    {
      "bufferView": 1,
      "byteOffset": 11375840,
      "componentType": 5126,
      "count": 22904,
      "max": [
        1,
        1
      ],
      "min": [
        0,
        0
      ],
      "type": "VEC2"
    },
    {
      "bufferView": 0,
      "byteOffset": 8929008,
      "componentType": 5125,
      "count": 112884,
      "max": [
        22903
      ],
      "min": [
        0
      ],
      "type": "SCALAR"
    },
    {
      "bufferView": 2,
      "byteOffset": 11559072,
      "componentType": 5126,
      "count": 65533,
      "max": [
        4.2193288803100586,
        4.3424677848815918,
        11.832145690917969
      ],
      "min": [
        -4.7744321823120117,
        -5.1839103698730469,
        2.4188156127929688
      ],
      "type": "VEC3"
    },
    {
      "bufferView": 2,
      "byteOffset": 12345468,
      "componentType": 5126,
      "count": 65533,
      "max": [
        0.99927526712417603,
        0.99967294931411743,
        0.99996370077133179
      ],
      "min": [
        -0.99975872039794922,
        -0.99824446439743042,
        -0.8910219669342041
      ],
      "type": "VEC3"
    },
    {
      "bufferView": 1,
      "byteOffset": 11559072,
      "componentType": 5126,
      "count": 65533,
      "max": [
        0.88509124517440796,
        0.99220913648605347
      ],
      "min": [
        0.075004845857620239,
        -0.00053110800217837095
      ],
      "type": "VEC2"
    },
    {
      "bufferView": 0,
      "byteOffset": 9380544,
      "componentType": 5125,
      "count": 98313,
      "max": [
        65532
      ],
      "min": [
        0
      ],
      "type": "SCALAR"
    },
    {
      "bufferView": 2,
      "byteOffset": 13131864,
      "componentType": 5126,
      "count": 65534,
      "max": [
        4.0883221626281738,
        4.5330657958984375,
        10.213912010192871
      ],
      "min": [
        -4.6419200897216797,
        -4.6515903472900391,
        1.5744559764862061
      ],
      "type": "VEC3"
    },
    {
      "bufferView": 2,
      "byteOffset": 13918272,
      "componentType": 5126,
      "count": 65534,
      "max": [
        0.99996340274810791,
        0.99983155727386475,
        0.99999576807022095
      ],
      "min": [
        -0.99984228610992432,
        -0.99956285953521729,
        -0.92383229732513428
      ],
      "type": "VEC3"
    },
    {
      "bufferView": 1,
      "byteOffset": 12083336,
      "componentType": 5126,
      "count": 65534,
      "max": [
        0.88509124517440796,
        0.99220913648605347
      ],
      "min": [
        0.075004845857620239,
        -0.00053110800217837095
      ],
      "type": "VEC2"
    },
    {
      "bufferView": 0,
      "byteOffset": 9773796,
      "componentType": 5125,
      "count": 98316,
      "max": [
        65533
      ],
      "min": [
        0
      ],
      "type": "SCALAR"
    },
    {
      "bufferView": 2,
      "byteOffset": 14704680,
      "componentType": 5126,
      "count": 29961,
      "max": [
        3.9330050945281982,
        4.2737851142883301,
        10.990840911865234
      ],
      "min": [
        -4.5521197319030762,
        -4.9879059791564941,
        6.0524821281433105
      ],
      "type": "VEC3"
    },
    {
      "bufferView": 2,
      "byteOffset": 15064212,
      "componentType": 5126,
      "count": 29961,
      "max": [
        0.99989843368530273,
        0.9980013370513916,
        0.99999803304672241
      ],
      "min": [
        -0.99851173162460327,
        -0.99966830015182495,
        -0.79470831155776978
      ],
      "type": "VEC3"
    },
    {
      "bufferView": 1,
      "byteOffset": 12607608,
      "componentType": 5126,
      "count": 29961,
      "max": [
        0.88509124517440796,
        0.99220913648605347
      ],
      "min": [
        0.075004845857620239,
        -0.00053110800217837095
      ],
      "type": "VEC2"
    },
    {
      "bufferView": 0,
      "byteOffset": 10167060,
      "componentType": 5125,
      "count": 44943,
      "max": [
        29960
      ],
      "min": [
        0
      ],
      "type": "SCALAR"
    }
  ],
  "asset": {
    "extras": {
      "author": "Omkar_suryavanshi (https://sketchfab.com/Omkar_suryavanshi)",
      "license": "CC-BY-4.0 (http://creativecommons.org/licenses/by/4.0/)",
      "source": "https://sketchfab.com/3d-models/lowpoly-tree-model-fde8eeadb3fe4137bfb13b8b02566751",
      "title": "Lowpoly Tree Model"
    },
    "generator": "Sketchfab-9.99.1",
    "version": "2.0"
  },
  "bufferViews": [
    {
      "buffer": 0,
      "byteLength": 10346832,
      "byteOffset": 0,
      "name": "floatBufferViews",
      "target": 34963
    },
    {
      "buffer": 0,
      "byteLength": 12847296,
      "byteOffset": 10346832,
      "byteStride": 8,
      "name": "floatBufferViews",
      "target": 34962
    },
    {
      "buffer": 0,
      "byteLength": 15423744,
      "byteOffset": 23194128,
      "byteStride": 12,
      "name": "floatBufferViews",
      "target": 34962
    }
  ],
  "buffers": [
    {
      "byteLength": 38617872,
      "uri": "scene.bin"
    }
  ],
  "materials": [
    {
      "doubleSided": true,
      "emissiveFactor": [
        0,
        0,
        0
      ],
      "name": "woood",
      "pbrMetallicRoughness": {
        "baseColorFactor": [
          0.40395232919355684,
          0.17610343905163361,
          0.056286587687502929,
          1
        ],
        "metallicFactor": 0,
        "roughnessFactor": 1
      }
    },
    {
      "doubleSided": true,
      "emissiveFactor": [
        0,
        0,
        0
      ],
      "name": "leaf",
      "pbrMetallicRoughness": {
        "baseColorFactor": [
          0.028349595539140598,
          0.11106511231140416,
          0.017336185020602479,
          1
        ],
        "metallicFactor": 0,
        "roughnessFactor": 1
      }
    }
  ],
  "meshes": [
    {
      "name": "tree_woood_0",
      "primitives": [
        {
          "attributes": {
            "NORMAL": 1,
            "POSITION": 0,
            "TEXCOORD_0": 2,
            "TEXCOORD_1": 3,
            "TEXCOORD_2": 4
          },
          "indices": 5,
          "material": 0,
          "mode": 4
        }
      ]
    },
    {
      "name": "tree_woood_0",
      "primitives": [
        {
          "attributes": {
            "NORMAL": 7,
            "POSITION": 6,
            "TEXCOORD_0": 8,
            "TEXCOORD_1": 9,
            "TEXCOORD_2": 10
          },
          "indices": 11,
          "material": 0,
          "mode": 4
        }
      ]
    },
    {
      "name": "tree_woood_0",
      "primitives": [
        {
          "attributes": {
            "NORMAL": 13,
            "POSITION": 12,
            "TEXCOORD_0": 14,
            "TEXCOORD_1": 15,
            "TEXCOORD_2": 16
          },
          "indices": 17,
          "material": 0,
          "mode": 4
        }
      ]
    },
    {
      "name": "tree_woood_0",
      "primitives": [
        {
          "attributes": {
            "NORMAL": 19,
            "POSITION": 18,
            "TEXCOORD_0": 20,
            "TEXCOORD_1": 21,
            "TEXCOORD_2": 22
          },
          "indices": 23,
          "material": 0,
          "mode": 4
        }
      ]
    },
    {
      "name": "tree_woood_0",
      "primitives": [
        {
          "attributes": {
            "NORMAL": 25,
            "POSITION": 24,
            "TEXCOORD_0": 26,
            "TEXCOORD_1": 27,
            "TEXCOORD_2": 28
          },
          "indices": 29,
          "material": 0,
          "mode": 4
        }
      ]
    },
    {
      "name": "tree_woood_0",
      "primitives": [
        {
          "attributes": {
            "NORMAL": 31,
            "POSITION": 30,
            "TEXCOORD_0": 32,
            "TEXCOORD_1": 33,
            "TEXCOORD_2": 34
          },
          "indices": 35,
          "material": 0,
          "mode": 4
        }
      ]
    },
    {
      "name": "tree_woood_0",
      "primitives": [
        {
          "attributes": {
            "NORMAL": 37,
            "POSITION": 36,
            "TEXCOORD_0": 38,
            "TEXCOORD_1": 39,
            "TEXCOORD_2": 40
          },
          "indices": 41,
          "material": 0,
          "mode": 4
        }
      ]
    },
    {
      "name": "tree_woood_0",
      "primitives": [
        {
          "attributes": {
            "NORMAL": 43,
            "POSITION": 42,
            "TEXCOORD_0": 44,
            "TEXCOORD_1": 45,
            "TEXCOORD_2": 46
          },
          "indices": 47,
          "material": 0,
          "mode": 4
        }
      ]
    },
    {
      "name": "leaves_leaf_0",
      "primitives": [
        {
          "attributes": {
            "NORMAL": 49,
            "POSITION": 48,
            "TEXCOORD_0": 50
          },
          "indices": 51,
          "material": 1,
          "mode": 4
        }
      ]
    },
    {
      "name": "leaves_leaf_0",
      "primitives": [
        {
          "attributes": {
            "NORMAL": 53,
            "POSITION": 52,
            "TEXCOORD_0": 54
          },
          "indices": 55,
          "material": 1,
          "mode": 4
        }
      ]
    },
    {
      "name": "leaves_leaf_0",
      "primitives": [
        {
          "attributes": {
            "NORMAL": 57,
            "POSITION": 56,
            "TEXCOORD_0": 58
          },
          "indices": 59,
          "material": 1,
          "mode": 4
        }
      ]
    }
  ],
  "nodes": [
    {
      "children": [
        1
      ],
      "name": "RootNode (gltf orientation matrix)",
      "rotation": [
        -0.70710678118654746,
        -0,
        -0,
        0.70710678118654757
      ]
    },
    {
      "children": [
        2
      ],
      "name": "RootNode (model correction matrix)"
    },
    {
      "children": [
        3
      ],
      "matrix": [
        1,
        0,
        0,
        0,
        0,
        0,
        1,
        0,
        0,
        -1,
        0,
        0,
        0,
        0,
        0,
        1
      ],
      "name": "ef8b6b7b02d44773a04428165ca162ff.fbx"
    },
    {
      "children": [
        4
      ],
      "name": "RootNode"
    },
    {
      "children": [
        5,
        6,
        7,
        8,
        9,
        10,
        11,
        12,
        13
      ],
      "matrix": [
        100,
        0,
        0,
        0,
        0,
        -1.6292067939183141e-05,
        -99.999999999998678,
        0,
        0,
        99.999999999998678,
        -1.6292067939183141e-05,
        0,
        0,
        0,
        0,
        1
      ],
      "name": "tree"
    },
    {
      "mesh": 0,
      "name": "tree_woood_0"
    },
    {
      "mesh": 1,
      "name": "tree_woood_0"
    },
    {
      "mesh": 2,
      "name": "tree_woood_0"
    },
    {
      "mesh": 3,
      "name": "tree_woood_0"
    },
    {
      "mesh": 4,
      "name": "tree_woood_0"
    },
    {
      "mesh": 5,
      "name": "tree_woood_0"
    },
    {
      "mesh": 6,
      "name": "tree_woood_0"
    },
    {
      "mesh": 7,
      "name": "tree_woood_0"
    },
    {
      "children": [
        14,
        15,
        16
      ],
      "matrix": [
        1,
        0,
        0,
        0,
        0,
        1,
        -2.646977960169688e-23,
        0,
        0,
        2.646977960169688e-23,
        1,
        0,
        0,
        0,
        0,
        1
      ],
      "name": "leaves"
    },
    {
      "mesh": 8,
      "name": "leaves_leaf_0"
    },
    {
      "mesh": 9,
      "name": "leaves_leaf_0"
    },
    {
      "mesh": 10,
      "name": "leaves_leaf_0"
    }
  ],
  "scene": 0,
  "scenes": [
    {
      "name": "OSG_Scene",
      "nodes": [
        0
      ]
    }
  ]
}

