{
  "accessors": [
    {
      "bufferView": 2,
      "componentType": 5126,
      "count": 8781,
      "max": [
        65.228118896484375,
        33.115470886230469,
        90.33587646484375
      ],
      "min": [
        -57.397621154785156,
        -33.115470886230469,
        -0.060679998248815536
      ],
      "type": "VEC3"
    },
    {
      "bufferView": 2,
      "byteOffset": 105372,
      "componentType": 5126,
      "count": 8781,
      "max": [
        1,
        1,
        1
      ],
      "min": [
        -1,
        -1,
        -1
      ],
      "type": "VEC3"
    },
    {
      "bufferView": 1,
      "componentType": 5126,
      "count": 8781,
      "max": [
        0.99935001134872437,
        0.99493998289108276
      ],
      "min": [
        0.0033599999733269215,
        0.0008800000068731606
      ],
      "type": "VEC2"
    },
    {
      "bufferView": 0,
      "componentType": 5125,
      "count": 34350,
      "max": [
        8780
      ],
      "min": [
        0
      ],
      "type": "SCALAR"
    },
    {
      "bufferView": 2,
      "byteOffset": 210744,
      "componentType": 5126,
      "count": 24,
      "max": [
        -27.543939590454102,
        24.420009613037109,
        75.758087158203125
      ],
      "min": [
        -35.882080078125,
        -24.420009613037109,
        45.649799346923828
      ],
      "type": "VEC3"
    },
    {
      "bufferView": 2,
      "byteOffset": 211032,
      "componentType": 5126,
      "count": 24,
      "max": [
        0.96592271327972412,
        1,
        0.96592271327972412
      ],
      "min": [
        -0.96592271327972412,
        -1,
        -0.96592271327972412
      ],
      "type": "VEC3"
    },
    {
      "bufferView": 1,
      "byteOffset": 70248,
      "componentType": 5126,
      "count": 24,
      "max": [
        0.99896001815795898,
        0.97855997085571289
      ],
      "min": [
        0.0010400000028312206,
        0.0010400000028312206
      ],
      "type": "VEC2"
    },
    {
      "bufferView": 0,
      "byteOffset": 137400,
      "componentType": 5125,
      "count": 36,
      "max": [
        23
      ],
      "min": [
        0
      ],
      "type": "SCALAR"
    }
  ],
  "asset": {
    "extras": {
      "author": "maxdragonn (https://sketchfab.com/maxdragon)",
      "license": "CC-BY-4.0 (http://creativecommons.org/licenses/by/4.0/)",
      "source": "https://sketchfab.com/3d-models/area-9-golf-cart-5fd13a5303af4f3bbbba993dad35f788",
      "title": "area 9 golf cart"
    },
    "generator": "Sketchfab-9.99.1",
    "version": "2.0"
  },
  "bufferViews": [
    {
      "buffer": 0,
      "byteLength": 137544,
      "byteOffset": 0,
      "name": "floatBufferViews",
      "target": 34963
    },
    {
      "buffer": 0,
      "byteLength": 70440,
      "byteOffset": 137544,
      "byteStride": 8,
      "name": "floatBufferViews",
      "target": 34962
    },
    {
      "buffer": 0,
      "byteLength": 211320,
      "byteOffset": 207984,
      "byteStride": 12,
      "name": "floatBufferViews",
      "target": 34962
    }
  ],
  "buffers": [
    {
      "byteLength": 419304,
      "uri": "scene.bin"
    }
  ],
  "images": [
    {
      "uri": "textures/golfcart_baseColor.png"
    },
    {
      "uri": "textures/golfcart_glass_baseColor.png"
    }
  ],
  "materials": [
    {
      "doubleSided": true,
      "emissiveFactor": [
        0,
        0,
        0
      ],
      "name": "golfcart",
      "pbrMetallicRoughness": {
        "baseColorFactor": [
          1,
          1,
          1,
          1
        ],
        "baseColorTexture": {
          "index": 0,
          "texCoord": 0
        },
        "metallicFactor": 0,
        "roughnessFactor": 0.70701013564866333
      }
    },
    {
      "alphaMode": "BLEND",
      "doubleSided": true,
      "emissiveFactor": [
        0,
        0,
        0
      ],
      "name": "golfcart_glass",
      "pbrMetallicRoughness": {
        "baseColorFactor": [
          1,
          1,
          1,
          0.19627558992880118
        ],
        "baseColorTexture": {
          "index": 1,
          "texCoord": 0
        },
        "metallicFactor": 1,
        "roughnessFactor": 0
      }
    }
  ],
  "meshes": [
    {
      "name": "golfcart_0",
      "primitives": [
        {
          "attributes": {
            "NORMAL": 1,
            "POSITION": 0,
            "TEXCOORD_0": 2
          },
          "indices": 3,
          "material": 0,
          "mode": 4
        }
      ]
    },
    {
      "name": "golfcart_1",
      "primitives": [
        {
          "attributes": {
            "NORMAL": 5,
            "POSITION": 4,
            "TEXCOORD_0": 6
          },
          "indices": 7,
          "material": 1,
          "mode": 4
        }
      ]
    }
  ],
  "nodes": [
    {
      "children": [
        1
      ],
      "name": "RootNode (gltf orientation matrix)",
      "rotation": [
        -0.70710678118654746,
        -0,
        -0,
        0.70710678118654757
      ]
    },
    {
      "children": [
        2
      ],
      "name": "RootNode (model correction matrix)"
    },
    {
      "children": [
        3
      ],
      "name": "Root"
    },
    {
      "children": [
        4,
        5
      ],
      "name": "golfcart"
    },
    {
      "mesh": 0,
      "name": "golfcart_0"
    },
    {
      "mesh": 1,
      "name": "golfcart_1"
    }
  ],
  "samplers": [
    {
      "magFilter": 9729,
      "minFilter": 9987,
      "wrapS": 10497,
      "wrapT": 10497
    }
  ],
  "scene": 0,
  "scenes": [
    {
      "name": "OSG_Scene",
      "nodes": [
        0
      ]
    }
  ],
  "textures": [
    {
      "sampler": 0,
      "source": 0
    },
    {
      "sampler": 0,
      "source": 1
    }
  ]
}

