{
  "accessors": [
    {
      "bufferView": 2,
      "componentType": 5126,
      "count": 65532,
      "max": [
        14.168749809265137,
        10.401120185852051,
        -0.83016997575759888
      ],
      "min": [
        -12.295160293579102,
        -7.9028801918029785,
        -1.7010500431060791
      ],
      "type": "VEC3"
    },
    {
      "bufferView": 2,
      "byteOffset": 786384,
      "componentType": 5126,
      "count": 65532,
      "max": [
        0.81171441078186035,
        0.86471009254455566,
        0.99999946355819702
      ],
      "min": [
        -0.79117637872695923,
        -0.84328091144561768,
        0.11805035173892975
      ],
      "type": "VEC3"
    },
    {
      "bufferView": 3,
      "componentType": 5126,
      "count": 65532,
      "max": [
        1,
        0.91355675458908081,
        0.7834019660949707,
        1
      ],
      "min": [
        -0.10343959927558899,
        -0.90559542179107666,
        -0.8333122730255127,
        -1
      ],
      "type": "VEC4"
    },
    {
      "bufferView": 1,
      "componentType": 5126,
      "count": 65532,
      "max": [
        0.98092001676559448,
        0.97943997383117676
      ],
      "min": [
        0.080519996583461761,
        0.35666999220848083
      ],
      "type": "VEC2"
    },
    {
      "bufferView": 0,
      "componentType": 5125,
      "count": 330519,
      "max": [
        65531
      ],
      "min": [
        0
      ],
      "type": "SCALAR"
    },
    {
      "bufferView": 2,
      "byteOffset": 1572768,
      "componentType": 5126,
      "count": 65532,
      "max": [
        14.178380012512207,
        10.566390037536621,
        -0.72781002521514893
      ],
      "min": [
        -13.774880409240723,
        -7.9155502319335938,
        -2.1696500778198242
      ],
      "type": "VEC3"
    },
    {
      "bufferView": 2,
      "byteOffset": 2359152,
      "componentType": 5126,
      "count": 65532,
      "max": [
        0.83702665567398071,
        0.86081254482269287,
        0.99999946355819702
      ],
      "min": [
        -0.81742656230926514,
        -0.84328091144561768,
        -1
      ],
      "type": "VEC3"
    },
    {
      "bufferView": 3,
      "byteOffset": 1048512,
      "componentType": 5126,
      "count": 65532,
      "max": [
        1,
        0.99997323751449585,
        0.80365073680877686,
        1
      ],
      "min": [
        -0.99551606178283691,
        -0.99998515844345093,
        -0.8333122730255127,
        -1
      ],
      "type": "VEC4"
    },
    {
      "bufferView": 1,
      "byteOffset": 524256,
      "componentType": 5126,
      "count": 65532,
      "max": [
        0.99994999170303345,
        0.98505997657775879
      ],
      "min": [
        0.030169999226927757,
        0.10058999806642532
      ],
      "type": "VEC2"
    },
    {
      "bufferView": 0,
      "byteOffset": 1322076,
      "componentType": 5125,
      "count": 282393,
      "max": [
        65531
      ],
      "min": [
        0
      ],
      "type": "SCALAR"
    },
    {
      "bufferView": 2,
      "byteOffset": 3145536,
      "componentType": 5126,
      "count": 65532,
      "max": [
        14.178380012512207,
        10.566390037536621,
        -1.6908500194549561
      ],
      "min": [
        -10.885930061340332,
        -7.9155502319335938,
        -2.1696500778198242
      ],
      "type": "VEC3"
    },
    {
      "bufferView": 2,
      "byteOffset": 3931920,
      "componentType": 5126,
      "count": 65532,
      "max": [
        0.96757012605667114,
        0.86471009254455566,
        0.92252111434936523
      ],
      "min": [
        -0.99999767541885376,
        -0.79929912090301514,
        -1
      ],
      "type": "VEC3"
    },
    {
      "bufferView": 3,
      "byteOffset": 2097024,
      "componentType": 5126,
      "count": 65532,
      "max": [
        1,
        0.99999994039535522,
        0.81091296672821045,
        1
      ],
      "min": [
        -0.99999970197677612,
        -1,
        -0.80512803792953491,
        -1
      ],
      "type": "VEC4"
    },
    {
      "bufferView": 1,
      "byteOffset": 1048512,
      "componentType": 5126,
      "count": 65532,
      "max": [
        0.98821002244949341,
        0.26295998692512512
      ],
      "min": [
        0.17186999320983887,
        4.9999998736893758e-05
      ],
      "type": "VEC2"
    },
    {
      "bufferView": 0,
      "byteOffset": 2451648,
      "componentType": 5125,
      "count": 326337,
      "max": [
        65531
      ],
      "min": [
        0
      ],
      "type": "SCALAR"
    },
    {
      "bufferView": 2,
      "byteOffset": 4718304,
      "componentType": 5126,
      "count": 64777,
      "max": [
        14.178380012512207,
        10.553720474243164,
        -0.77404999732971191
      ],
      "min": [
        -13.774880409240723,
        -7.8797402381896973,
        -2.1696500778198242
      ],
      "type": "VEC3"
    },
    {
      "bufferView": 2,
      "byteOffset": 5495628,
      "componentType": 5126,
      "count": 64777,
      "max": [
        0.78498971462249756,
        0.84464603662490845,
        0.99999898672103882
      ],
      "min": [
        -0.9999890923500061,
        -0.80610096454620361,
        -1
      ],
      "type": "VEC3"
    },
    {
      "bufferView": 3,
      "byteOffset": 3145536,
      "componentType": 5126,
      "count": 64777,
      "max": [
        1,
        0.99999815225601196,
        0.80176264047622681,
        1
      ],
      "min": [
        -0.99999970197677612,
        -0.99995529651641846,
        -0.81782811880111694,
        -1
      ],
      "type": "VEC4"
    },
    {
      "bufferView": 1,
      "byteOffset": 1572768,
      "componentType": 5126,
      "count": 64777,
      "max": [
        0.98632001876831055,
        0.96845000982284546
      ],
      "min": [
        4.9999998736893758e-05,
        0.0020500000100582838
      ],
      "type": "VEC2"
    },
    {
      "bufferView": 0,
      "byteOffset": 3756996,
      "componentType": 5125,
      "count": 285123,
      "max": [
        64776
      ],
      "min": [
        0
      ],
      "type": "SCALAR"
    }
  ],
  "asset": {
    "extras": {
      "author": "JuanG3D (https://sketchfab.com/juang3d)",
      "license": "CC-BY-4.0 (http://creativecommons.org/licenses/by/4.0/)",
      "source": "https://sketchfab.com/models/db07753aca1d4e7cbd1458c7a6d95761",
      "title": "Day#22: Elba island"
    },
    "generator": "Sketchfab-3.18.6",
    "version": "2.0"
  },
  "bufferViews": [
    {
      "buffer": 0,
      "byteLength": 4897488,
      "byteOffset": 0,
      "name": "floatBufferViews",
      "target": 34963
    },
    {
      "buffer": 0,
      "byteLength": 2090984,
      "byteOffset": 4897488,
      "byteStride": 8,
      "name": "floatBufferViews",
      "target": 34962
    },
    {
      "buffer": 0,
      "byteLength": 6272952,
      "byteOffset": 6988472,
      "byteStride": 12,
      "name": "floatBufferViews",
      "target": 34962
    },
    {
      "buffer": 0,
      "byteLength": 4181968,
      "byteOffset": 13261424,
      "byteStride": 16,
      "name": "floatBufferViews",
      "target": 34962
    }
  ],
  "buffers": [
    {
      "byteLength": 17443392,
      "uri": "scene.bin"
    }
  ],
  "images": [
    {
      "uri": "textures/Material_baseColor.jpg"
    }
  ],
  "materials": [
    {
      "doubleSided": true,
      "emissiveFactor": [
        0,
        0,
        0
      ],
      "name": "Material",
      "pbrMetallicRoughness": {
        "baseColorFactor": [
          1,
          1,
          1,
          1
        ],
        "baseColorTexture": {
          "index": 0,
          "texCoord": 0
        },
        "metallicFactor": 0,
        "roughnessFactor": 0.70618453120000002
      }
    }
  ],
  "meshes": [
    {
      "name": "Plane.001_0",
      "primitives": [
        {
          "attributes": {
            "NORMAL": 1,
            "POSITION": 0,
            "TANGENT": 2,
            "TEXCOORD_0": 3
          },
          "indices": 4,
          "material": 0,
          "mode": 4
        }
      ]
    },
    {
      "name": "Plane.001_0",
      "primitives": [
        {
          "attributes": {
            "NORMAL": 6,
            "POSITION": 5,
            "TANGENT": 7,
            "TEXCOORD_0": 8
          },
          "indices": 9,
          "material": 0,
          "mode": 4
        }
      ]
    },
    {
      "name": "Plane.001_0",
      "primitives": [
        {
          "attributes": {
            "NORMAL": 11,
            "POSITION": 10,
            "TANGENT": 12,
            "TEXCOORD_0": 13
          },
          "indices": 14,
          "material": 0,
          "mode": 4
        }
      ]
    },
    {
      "name": "Plane.001_0",
      "primitives": [
        {
          "attributes": {
            "NORMAL": 16,
            "POSITION": 15,
            "TANGENT": 17,
            "TEXCOORD_0": 18
          },
          "indices": 19,
          "material": 0,
          "mode": 4
        }
      ]
    }
  ],
  "nodes": [
    {
      "children": [
        1
      ],
      "name": "RootNode (gltf orientation matrix)",
      "rotation": [
        -0.70710678118654746,
        -0,
        -0,
        0.70710678118654757
      ]
    },
    {
      "children": [
        2
      ],
      "name": "RootNode (model correction matrix)"
    },
    {
      "children": [
        3
      ],
      "name": "Root"
    },
    {
      "children": [
        4,
        5,
        6,
        7
      ],
      "matrix": [
        1,
        0,
        0,
        0,
        0,
        1,
        0,
        0,
        0,
        0,
        2,
        0,
        0,
        0,
        1.69937,
        1
      ],
      "name": "Plane.001"
    },
    {
      "mesh": 0,
      "name": "Plane.001_0"
    },
    {
      "mesh": 1,
      "name": "Plane.001_0"
    },
    {
      "mesh": 2,
      "name": "Plane.001_0"
    },
    {
      "mesh": 3,
      "name": "Plane.001_0"
    }
  ],
  "samplers": [
    {
      "magFilter": 9729,
      "minFilter": 9987,
      "wrapS": 10497,
      "wrapT": 10497
    }
  ],
  "scene": 0,
  "scenes": [
    {
      "name": "OSG_Scene",
      "nodes": [
        0
      ]
    }
  ],
  "textures": [
    {
      "sampler": 0,
      "source": 0
    }
  ]
}

